{
    "asset" : {
        "generator" : "Khronos glTF Blender I/O v1.5.17",
        "version" : "2.0"
    },
    "scene" : 0,
    "scenes" : [
        {
            "name" : "Scene",
            "nodes" : [
                1
            ]
        }
    ],
    "nodes" : [
        {
            "mesh" : 0,
            "name" : "Object_95",
            "translation" : [
                0.021127168089151382,
                -0.7223081588745117,
                0.9283507466316223
            ]
        },
        {
            "children" : [
                0
            ],
            "name" : "WHEEL.001_38",
            "rotation" : [
                -0.30769169330596924,
                -0.30769169330596924,
                -0.6366520524024963,
                0.6366520524024963
            ],
            "scale" : [
                0.0812373086810112,
                0.122646763920784,
                0.0812373086810112
            ],
            "translation" : [
                0.08892811089754105,
                -0.05796511098742485,
                -0.04839644953608513
            ]
        }
    ],
    "materials" : [
        {
            "doubleSided" : true,
            "name" : "Material.023",
            "pbrMetallicRoughness" : {
                "baseColorFactor" : [
                    0.05811116844415665,
                    0.05811116844415665,
                    0.05811116844415665,
                    1
                ],
                "metallicFactor" : 0,
                "roughnessFactor" : 0.3687939941883087
            }
        },
        {
            "doubleSided" : true,
            "name" : "Material.022",
            "pbrMetallicRoughness" : {
                "baseColorFactor" : [
                    0,
                    0,
                    0,
                    1
                ],
                "metallicFactor" : 0,
                "roughnessFactor" : 0.7198579907417297
            }
        },
        {
            "doubleSided" : true,
            "name" : "Material.021",
            "pbrMetallicRoughness" : {
                "baseColorFactor" : [
                    0.09083849936723709,
                    0.09083849936723709,
                    0.09083849936723709,
                    1
                ],
                "roughnessFactor" : 0.31560298800468445
            }
        },
        {
            "doubleSided" : true,
            "name" : "Material.020",
            "pbrMetallicRoughness" : {
                "baseColorFactor" : [
                    0.800000011920929,
                    0,
                    0.000705123005900532,
                    1
                ],
                "metallicFactor" : 0,
                "roughnessFactor" : 0.17375899851322174
            }
        },
        {
            "doubleSided" : true,
            "emissiveFactor" : [
                1,
                1,
                1
            ],
            "name" : "Material.015",
            "pbrMetallicRoughness" : {
                "baseColorFactor" : [
                    1,
                    0.9098397493362427,
                    0.9441142678260803,
                    1
                ],
                "roughnessFactor" : 0.5
            }
        },
        {
            "doubleSided" : true,
            "emissiveFactor" : [
                1,
                1,
                1
            ],
            "name" : "Material.014",
            "pbrMetallicRoughness" : {
                "roughnessFactor" : 0.5
            }
        }
    ],
    "meshes" : [
        {
            "name" : "Object_56",
            "primitives" : [
                {
                    "attributes" : {
                        "POSITION" : 0,
                        "NORMAL" : 1,
                        "TEXCOORD_0" : 2
                    },
                    "indices" : 3,
                    "material" : 0
                },
                {
                    "attributes" : {
                        "POSITION" : 4,
                        "NORMAL" : 5,
                        "TEXCOORD_0" : 6
                    },
                    "indices" : 7,
                    "material" : 1
                },
                {
                    "attributes" : {
                        "POSITION" : 8,
                        "NORMAL" : 9,
                        "TEXCOORD_0" : 10
                    },
                    "indices" : 11,
                    "material" : 2
                },
                {
                    "attributes" : {
                        "POSITION" : 12,
                        "NORMAL" : 13,
                        "TEXCOORD_0" : 14
                    },
                    "indices" : 15,
                    "material" : 3
                },
                {
                    "attributes" : {
                        "POSITION" : 16,
                        "NORMAL" : 17,
                        "TEXCOORD_0" : 18
                    },
                    "indices" : 19,
                    "material" : 4
                },
                {
                    "attributes" : {
                        "POSITION" : 20,
                        "NORMAL" : 21,
                        "TEXCOORD_0" : 22
                    },
                    "indices" : 23,
                    "material" : 5
                }
            ]
        }
    ],
    "accessors" : [
        {
            "bufferView" : 0,
            "componentType" : 5126,
            "count" : 23049,
            "max" : [
                2.4849727153778076,
                0.5763622522354126,
                2.4913785457611084
            ],
            "min" : [
                -2.4872782230377197,
                -0.620787501335144,
                -2.5015709400177
            ],
            "type" : "VEC3"
        },
        {
            "bufferView" : 1,
            "componentType" : 5126,
            "count" : 23049,
            "type" : "VEC3"
        },
        {
            "bufferView" : 2,
            "componentType" : 5126,
            "count" : 23049,
            "type" : "VEC2"
        },
        {
            "bufferView" : 3,
            "componentType" : 5123,
            "count" : 117678,
            "type" : "SCALAR"
        },
        {
            "bufferView" : 4,
            "componentType" : 5126,
            "count" : 2706,
            "max" : [
                2.989644765853882,
                0.5718041658401489,
                2.991194248199463
            ],
            "min" : [
                -2.991950273513794,
                -0.7119868993759155,
                -2.990400552749634
            ],
            "type" : "VEC3"
        },
        {
            "bufferView" : 5,
            "componentType" : 5126,
            "count" : 2706,
            "type" : "VEC3"
        },
        {
            "bufferView" : 6,
            "componentType" : 5126,
            "count" : 2706,
            "type" : "VEC2"
        },
        {
            "bufferView" : 7,
            "componentType" : 5123,
            "count" : 14592,
            "type" : "SCALAR"
        },
        {
            "bufferView" : 8,
            "componentType" : 5126,
            "count" : 683,
            "max" : [
                1.6656373739242554,
                0.0865374356508255,
                1.6671868562698364
            ],
            "min" : [
                -1.667942762374878,
                -0.05929224193096161,
                -1.6663930416107178
            ],
            "type" : "VEC3"
        },
        {
            "bufferView" : 9,
            "componentType" : 5126,
            "count" : 683,
            "type" : "VEC3"
        },
        {
            "bufferView" : 10,
            "componentType" : 5126,
            "count" : 683,
            "type" : "VEC2"
        },
        {
            "bufferView" : 11,
            "componentType" : 5123,
            "count" : 960,
            "type" : "SCALAR"
        },
        {
            "bufferView" : 12,
            "componentType" : 5126,
            "count" : 2523,
            "max" : [
                0.7520919442176819,
                0.17347487807273865,
                1.078499674797058
            ],
            "min" : [
                -1.812323808670044,
                0.04821832478046417,
                -1.8112571239471436
            ],
            "type" : "VEC3"
        },
        {
            "bufferView" : 13,
            "componentType" : 5126,
            "count" : 2523,
            "type" : "VEC3"
        },
        {
            "bufferView" : 14,
            "componentType" : 5126,
            "count" : 2523,
            "type" : "VEC2"
        },
        {
            "bufferView" : 15,
            "componentType" : 5123,
            "count" : 9918,
            "type" : "SCALAR"
        },
        {
            "bufferView" : 16,
            "componentType" : 5126,
            "count" : 1400,
            "max" : [
                0.1027405858039856,
                0.5937381982803345,
                0.2046329528093338
            ],
            "min" : [
                -0.20204395055770874,
                0.5567785501480103,
                -0.12099770456552505
            ],
            "type" : "VEC3"
        },
        {
            "bufferView" : 17,
            "componentType" : 5126,
            "count" : 1400,
            "type" : "VEC3"
        },
        {
            "bufferView" : 18,
            "componentType" : 5126,
            "count" : 1400,
            "type" : "VEC2"
        },
        {
            "bufferView" : 19,
            "componentType" : 5123,
            "count" : 1476,
            "type" : "SCALAR"
        },
        {
            "bufferView" : 20,
            "componentType" : 5126,
            "count" : 226,
            "max" : [
                -0.689105212688446,
                0.1292601376771927,
                -0.12045363336801529
            ],
            "min" : [
                -1.5488274097442627,
                0.10455425083637238,
                -1.1779570579528809
            ],
            "type" : "VEC3"
        },
        {
            "bufferView" : 21,
            "componentType" : 5126,
            "count" : 226,
            "type" : "VEC3"
        },
        {
            "bufferView" : 22,
            "componentType" : 5126,
            "count" : 226,
            "type" : "VEC2"
        },
        {
            "bufferView" : 23,
            "componentType" : 5123,
            "count" : 228,
            "type" : "SCALAR"
        }
    ],
    "bufferViews" : [
        {
            "buffer" : 0,
            "byteLength" : 276588,
            "byteOffset" : 0
        },
        {
            "buffer" : 0,
            "byteLength" : 276588,
            "byteOffset" : 276588
        },
        {
            "buffer" : 0,
            "byteLength" : 184392,
            "byteOffset" : 553176
        },
        {
            "buffer" : 0,
            "byteLength" : 235356,
            "byteOffset" : 737568
        },
        {
            "buffer" : 0,
            "byteLength" : 32472,
            "byteOffset" : 972924
        },
        {
            "buffer" : 0,
            "byteLength" : 32472,
            "byteOffset" : 1005396
        },
        {
            "buffer" : 0,
            "byteLength" : 21648,
            "byteOffset" : 1037868
        },
        {
            "buffer" : 0,
            "byteLength" : 29184,
            "byteOffset" : 1059516
        },
        {
            "buffer" : 0,
            "byteLength" : 8196,
            "byteOffset" : 1088700
        },
        {
            "buffer" : 0,
            "byteLength" : 8196,
            "byteOffset" : 1096896
        },
        {
            "buffer" : 0,
            "byteLength" : 5464,
            "byteOffset" : 1105092
        },
        {
            "buffer" : 0,
            "byteLength" : 1920,
            "byteOffset" : 1110556
        },
        {
            "buffer" : 0,
            "byteLength" : 30276,
            "byteOffset" : 1112476
        },
        {
            "buffer" : 0,
            "byteLength" : 30276,
            "byteOffset" : 1142752
        },
        {
            "buffer" : 0,
            "byteLength" : 20184,
            "byteOffset" : 1173028
        },
        {
            "buffer" : 0,
            "byteLength" : 19836,
            "byteOffset" : 1193212
        },
        {
            "buffer" : 0,
            "byteLength" : 16800,
            "byteOffset" : 1213048
        },
        {
            "buffer" : 0,
            "byteLength" : 16800,
            "byteOffset" : 1229848
        },
        {
            "buffer" : 0,
            "byteLength" : 11200,
            "byteOffset" : 1246648
        },
        {
            "buffer" : 0,
            "byteLength" : 2952,
            "byteOffset" : 1257848
        },
        {
            "buffer" : 0,
            "byteLength" : 2712,
            "byteOffset" : 1260800
        },
        {
            "buffer" : 0,
            "byteLength" : 2712,
            "byteOffset" : 1263512
        },
        {
            "buffer" : 0,
            "byteLength" : 1808,
            "byteOffset" : 1266224
        },
        {
            "buffer" : 0,
            "byteLength" : 456,
            "byteOffset" : 1268032
        }
    ],
    "buffers" : [
        {
            "byteLength" : 1268488,
            "uri" : "data:application/octet-stream;base64,"
        }
    ]
}
